<?xml version="1.0" encoding="UTF-8" standalone="no"?>
<!-- Created with Inkscape (http://www.inkscape.org/) -->

<svg
   xmlns:dc="http://purl.org/dc/elements/1.1/"
   xmlns:cc="http://creativecommons.org/ns#"
   xmlns:rdf="http://www.w3.org/1999/02/22-rdf-syntax-ns#"
   xmlns:svg="http://www.w3.org/2000/svg"
   xmlns="http://www.w3.org/2000/svg"
   xmlns:sodipodi="http://sodipodi.sourceforge.net/DTD/sodipodi-0.dtd"
   xmlns:inkscape="http://www.inkscape.org/namespaces/inkscape"
   width="64px"
   height="64px"
   id="svg2985"
   version="1.1"
   inkscape:version="0.48.2 r9819"
   sodipodi:docname="New document 2">
  <defs
     id="defs2987" />
  <sodipodi:namedview
     id="base"
     pagecolor="#ffffff"
     bordercolor="#666666"
     borderopacity="1.0"
     inkscape:pageopacity="0.0"
     inkscape:pageshadow="2"
     inkscape:zoom="11.092738"
     inkscape:cx="43.426336"
     inkscape:cy="37.663531"
     inkscape:current-layer="text2993"
     showgrid="true"
     inkscape:document-units="px"
     inkscape:grid-bbox="true"
     inkscape:window-width="1360"
     inkscape:window-height="721"
     inkscape:window-x="-4"
     inkscape:window-y="-4"
     inkscape:window-maximized="1" />
  <metadata
     id="metadata2990">
    <rdf:RDF>
      <cc:Work
         rdf:about="">
        <dc:format>image/svg+xml</dc:format>
        <dc:type
           rdf:resource="http://purl.org/dc/dcmitype/StillImage" />
        <dc:title></dc:title>
      </cc:Work>
    </rdf:RDF>
  </metadata>
  <g
     id="layer1"
     inkscape:label="Layer 1"
     inkscape:groupmode="layer">
    <g
       style="font-size:72px;font-style:normal;font-variant:normal;font-weight:300;font-stretch:normal;line-height:125%;letter-spacing:0px;word-spacing:0px;fill:#000000;fill-opacity:1;stroke:none;font-family:Sabrina AT;-inkscape-font-specification:Sabrina AT Light"
       id="text2993">
      <path
         d="M 3.5652219,16.773623 2.1252404,16.333629 c -0.4799947,-0.18414 -0.8399897,-0.215807 -1.0799861,-0.095 -0.23999698,0.120857 -0.35999532,0.299188 -0.35999532,0.534994 0.85900062,0.98322 2.09207012,1.519015 3.69921212,1.607387 1.6071346,0.08842 3.2342724,-0.0099 4.8814183,-0.294811 1.6471286,-0.284911 2.9601966,-0.495772 3.9392086,-0.632584 0.462481,6.354934 0.50748,11.434864 0.134998,15.239804 -0.372508,3.804955 -1.057498,6.244922 -2.054973,7.319905 0.259152,0.411661 0.580814,0.638325 0.964987,0.679992 0.38415,0.04167 0.715812,-0.05167 0.994987,-0.279997 1.189971,-2.933293 1.929961,-6.326579 2.219971,-10.179869 0.289981,-3.853269 0.189983,-8.206542 -0.299995,-13.059832 1.906625,0.02502 3.543269,0.08502 4.909936,0.179997 1.366629,0.09502 2.783276,0.31502 4.249946,0.659993 0.499969,-0.192475 0.819965,-0.417472 0.959987,-0.674992 0.139973,-0.257473 -0.02002,-0.592468 -0.479994,-1.004987 -0.951677,-0.219139 -2.298325,-0.390803 -4.039948,-0.514994 -1.741662,-0.12414 -3.928299,-0.08581 -6.559915,0.114999 -3.760795,0.602517 -6.3790924,0.947512 -7.8548998,1.034987 -1.4758188,0.08752 -2.404139,0.02252 -2.7849633,-0.194998 z"
         style="font-size:40px;stroke:#ff7f2a;stroke-width:0.50000000000000000;stroke-linecap:butt;stroke-miterlimit:10;-inkscape-font-specification:Sabrina AT Light"
         id="path3766" />
      <path
         d="m 37.481359,29.333462 c -1.926652,-0.433316 -3.643295,-0.42665 -5.149934,0.02 -1.506651,0.446672 -2.883299,1.293327 -4.129946,2.539968 -2.23775,2.347631 -3.042183,4.36785 -2.413304,6.060663 0.62888,1.692818 2.037749,2.73231 4.226613,3.118478 2.188855,0.386167 4.504378,-0.206911 6.946578,-1.779236 0.816644,-0.546658 1.5433,-1.133317 2.179971,-1.759978 0.636644,-0.626654 1.083305,-1.373311 1.339984,-2.239971 l -0.239997,-0.599992 c -0.516674,1.099157 -1.26333,2.030811 -2.239972,2.794964 -0.976665,0.76416 -1.963318,1.365818 -2.959961,1.804977 -1.94165,0.746657 -3.748291,0.96332 -5.419931,0.649991 -1.671648,-0.313328 -2.478303,-1.676642 -2.419969,-4.089947 1.459145,0.201669 2.97079,0.08834 4.534942,-0.339996 1.564139,-0.428323 3.305782,-1.181645 5.224933,-2.259971 0.969141,-0.705816 1.4808,-1.42414 1.534979,-2.154972 0.05415,-0.730813 -0.284175,-1.319139 -1.014986,-1.764977 z m -0.999987,2.559967 c -1.233327,1.122493 -2.626641,1.977481 -4.179947,2.564966 -1.553318,0.587498 -3.186628,0.772496 -4.899936,0.554994 -0.05208,-1.190291 0.507075,-2.202152 1.677478,-3.035587 1.170397,-0.833417 2.484545,-1.426534 3.942448,-1.779352 1.45789,-0.352797 2.592041,-0.403422 3.402457,-0.151874 0.810395,0.25157 0.829562,0.867187 0.0575,1.846853 z"
         style="font-size:40px;stroke:#28170b;stroke-width:0.50000000000000000;stroke-linecap:butt;stroke-miterlimit:10;-inkscape-font-specification:Sabrina AT Light;fill:#008080"
         id="path3768" />
      <path
         d="m 39.635256,29.773456 c -0.127499,0.887498 -0.132499,1.722486 -0.015,2.504967 0.117498,0.782498 0.522493,1.587487 1.214985,2.41497 -1.062487,1.283322 -1.547481,2.41664 -1.454982,3.399956 0.0925,0.983322 0.537493,1.796644 1.334984,2.439969 0.314994,0.114999 0.484992,0.124998 0.509994,0.03 0.025,-0.095 -0.065,-0.264996 -0.269998,-0.509993 -0.296663,-0.515825 -0.403329,-1.16415 -0.319995,-1.944976 0.08333,-0.78082 0.456658,-1.599141 1.119985,-2.454968 1.025662,0.968388 2.316509,1.90714 3.872542,2.816261 1.556022,0.909125 2.983163,1.578251 4.281427,2.007381 1.298243,0.42913 2.073541,0.407895 2.325896,-0.0637 -1.629991,-0.394993 -3.289968,-1.044984 -4.979936,-1.949975 -1.689984,-0.904985 -3.349961,-2.094969 -4.979936,-3.569954 0.974983,-1.461641 1.88497,-2.658291 2.729965,-3.589954 0.844983,-0.931643 1.654972,-1.588301 2.429969,-1.969974 0.211656,-0.161653 0.288322,-0.288318 0.229998,-0.379996 -0.05834,-0.09165 -0.201672,-0.13832 -0.429995,-0.139998 -0.81333,0.257508 -1.716651,0.8225 -2.709966,1.694978 -0.993324,0.872498 -1.996644,2.067482 -3.009961,3.584954 -0.414996,-0.518319 -0.714992,-1.111644 -0.899989,-1.779977 -0.184999,-0.668316 -0.284997,-1.661635 -0.299995,-2.979961 -0.120833,-0.06916 -0.239165,-0.08082 -0.354996,-0.035 -0.115832,0.04584 -0.224164,0.204175 -0.324996,0.474994 z"
         style="font-size:40px;stroke:#28170b;stroke-width:0.50000000000000000;stroke-linecap:butt;stroke-miterlimit:10;-inkscape-font-specification:Sabrina AT Light;fill:#ff0000"
         id="path3770" />
      <path
         d="m 56.69145,15.973634 c -0.265834,0.77168 -0.664162,1.828332 -1.194985,3.169958 -0.53083,1.34167 -1.159155,2.898316 -1.884976,4.669941 l -3.479955,0.399995 c -0.249162,0.19918 -0.400827,0.400844 -0.454995,0.604992 -0.05416,0.20418 -0.07583,0.415843 -0.065,0.634992 l 3.479955,0 c -0.783532,1.562597 -1.253942,3.61236 -1.411232,6.149295 -0.15729,2.536953 0.07979,4.825463 0.711241,6.865537 0.631449,2.040078 1.738517,3.096105 3.321207,3.168084 1.582683,0.07198 3.722237,-1.575709 6.418668,-4.943061 0.04249,-0.298325 0.08749,-0.791651 0.134998,-1.479981 0.04749,-0.688318 -0.157509,-0.981648 -0.614992,-0.879989 -1.924149,3.925577 -3.525793,6.084297 -4.804938,6.476167 -1.279154,0.39187 -2.210808,-0.296871 -2.794964,-2.066224 -0.584161,-1.769349 -0.795824,-3.933069 -0.634992,-6.491167 0.160829,-2.558081 0.719155,-4.824299 1.674978,-6.798661 l 3.999949,0 c 0.259989,-0.61081 0.389987,-1.039138 0.389995,-1.284984 -7e-6,-0.245813 -0.130005,-0.364145 -0.389995,-0.354995 l -3.479955,0 c 0.09531,-1.75923 0.532177,-3.185669 1.310608,-4.27932 0.778422,-1.09361 1.506536,-1.918806 2.184346,-2.475594 0.677795,-0.556739 0.913417,-0.909442 0.706866,-1.058111 -0.206567,-0.148618 -1.247178,-0.157577 -3.121834,-0.02687 z"
         style="font-size:40px;stroke:#28170b;stroke-width:0.50000000000000000;stroke-linecap:butt;stroke-miterlimit:10;-inkscape-font-specification:Sabrina AT Light;fill:#008000"
         id="path3772" />
    </g>
  </g>
</svg>
