<?xml version="1.0"?><svg width="698.52008" height="800.90808" xmlns="http://www.w3.org/2000/svg">
 <title>lego</title>

 <metadata id="metadata2835">image/svg+xmlLegoBlocks brunurb2007-11-14brunurbThis work is hereby released into the Public Domain. To view a copy of the public domain dedication, visit http://creativecommons.org/licenses/publicdomain/ or send a letter to Creative Commons, 171 Second Street, Suite 300, San Francisco, California, 94105, USA.openclipart.orgopenclipart.orglegoblockbrickplasticplaygametoykidchildrenpuzzlebuildLego type construction bricks</metadata>
 <g>
  <title>Layer 1</title>
  <g transform="translate(-45, -311)" id="g3245">
   <g transform="matrix(5.72445 0 0 5.72445 -1262.68 -2786.68)" id="g3164" fill="#002ec4">
    <path id="path3166" d="m266.565308,604.393127l0,22.501038l25.181,10.179993l0,-22.502014l-25.181,-10.179016z" fill="#002ec4"/>
   </g>
   <g transform="matrix(5.72445 0 0 5.72445 -1262.68 -2786.68)" id="g3168" fill="#2da6ff">
    <path id="path3170" d="m322.5513,627.271179l0,-21.76001l-30.938995,9.195007l0,22.500977l30.938995,-9.935974z"/>
   </g>
   <g transform="matrix(5.72445 0 0 5.72445 -1262.68 -2786.68)" id="g3172" fill="#2da6ff">
    <path id="path3174" d="m266.565308,604.661133l31.192017,-9.191956l24.793976,10.041992l-30.804993,9.461975l-25.181,-10.312012z"/>
   </g>
   <g transform="matrix(5.72445 0 0 5.72445 -1262.68 -2786.68)" id="g3176" fill="#002ec4">
    <path id="path3178" d="m286.925323,605.999146l0,4.554016c2.409973,2.143005 10.712982,2.01001 12.722992,-0.268005l0,-4.687988l-12.722992,0.401978z"/>
   </g>
   <g transform="matrix(5.72445 0 0 5.72445 -1262.68 -2786.68)" id="g3180" fill="#2da6ff">
    <path id="path3182" d="m286.925323,605.665161c0,-0.850037 2.847992,-1.540039 6.360992,-1.540039c3.514008,0 6.362,0.690002 6.362,1.540039c0,0.851013 -2.847992,1.539978 -6.362,1.539978c-3.513,0 -6.360992,-0.688965 -6.360992,-1.539978z"/>
   </g>
   <g transform="matrix(5.72445 0 0 5.72445 -1262.68 -2786.68)" id="g3188" fill="#002ec4">
    <path id="path3190" d="m302.795319,601.378174l0,4.553955c2.41098,2.144043 10.713989,2.01001 12.722992,-0.266968l0,-4.687988l-12.722992,0.401001z"/>
   </g>
   <g transform="matrix(5.72445 0 0 5.72445 -1262.68 -2786.68)" id="g3192" fill="#2da6ff">
    <path id="path3194" d="m302.795319,601.045166c0,-0.851013 2.847992,-1.540039 6.362,-1.540039c3.513,0 6.360992,0.689026 6.360992,1.540039c0,0.849976 -2.847992,1.539978 -6.360992,1.539978c-3.514008,0 -6.362,-0.690002 -6.362,-1.539978z"/>
   </g>
   <g transform="matrix(5.72445 0 0 5.72445 -1262.68 -2786.68)" id="g3200" fill="#002ec4">
    <path id="path3202" d="m289.606323,595.823181l0,4.553955c2.41098,2.143005 10.713989,2.009033 12.722992,-0.268005l0,-4.687988l-12.722992,0.402039z"/>
   </g>
   <g transform="matrix(5.72445 0 0 5.72445 -1262.68 -2786.68)" id="g3204" fill="#2da6ff">
    <path id="path3206" d="m289.606323,595.489136c0,-0.849976 2.847992,-1.539978 6.362,-1.539978c3.513,0 6.360992,0.690002 6.360992,1.539978c0,0.851013 -2.847992,1.540039 -6.360992,1.540039c-3.514008,0 -6.362,-0.689026 -6.362,-1.540039z"/>
   </g>
   <g transform="matrix(5.72445 0 0 5.72445 -1262.68 -2786.68)" id="g3212" fill="#002ec4">
    <path id="path3214" d="m274.004303,600.311157l0,4.554016c2.411011,2.143005 10.71402,2.008972 12.722992,-0.268005l0,-4.687988l-12.722992,0.401978z"/>
   </g>
   <g transform="matrix(5.72445 0 0 5.72445 -1262.68 -2786.68)" id="g3216" fill="#2da6ff">
    <path id="path3218" d="m274.004303,599.977173c0,-0.851013 2.847992,-1.540039 6.362,-1.540039c3.513,0 6.360992,0.689026 6.360992,1.540039c0,0.850952 -2.847992,1.539978 -6.360992,1.539978c-3.514008,0 -6.362,-0.689026 -6.362,-1.539978z"/>
   </g>
  </g>
  <g id="g2860" transform="matrix(5.7244485,0,0,5.7244485,-582.68175,-2300.9683)" fill="#f5fa40">
   <path id="path2862"/>
  </g>
  <g id="g2872" transform="matrix(5.7244485,0,0,5.7244485,-582.68175,-2300.9683)" fill="#f5fa40">
   <path id="path2874"/>
  </g>
  <g id="g2884" transform="matrix(5.7244485,0,0,5.7244485,-582.68175,-2300.9683)" fill="#f5fa40">
   <path id="path2886"/>
  </g>
  <g id="g2896" transform="matrix(5.7244485,0,0,5.7244485,-582.68175,-2300.9683)" fill="#f5fa40">
   <path id="path2898"/>
  </g>
  <g id="g2908" transform="matrix(5.7244485,0,0,5.7244485,-582.68175,-2300.9683)" fill="#f5fa40">
   <path id="path2910"/>
  </g>
  <g id="g2920" transform="matrix(5.7244485,0,0,5.7244485,-582.68175,-2300.9683)" fill="#f5fa40">
   <path id="path2922"/>
  </g>
  <g id="g2932" transform="matrix(5.7244485,0,0,5.7244485,-582.68175,-2300.9683)" fill="#f5fa40">
   <path id="path2934"/>
  </g>
  <g id="g2944" transform="matrix(5.7244485,0,0,5.7244485,-582.68175,-2300.9683)" fill="#f5fa40">
   <path id="path2946"/>
  </g>
  <g id="g2968" transform="matrix(5.7244485,0,0,5.7244485,-582.68175,-2300.9683)" fill="#ff212c">
   <path id="path2970"/>
  </g>
  <g id="g2980" transform="matrix(5.7244485,0,0,5.7244485,-582.68175,-2300.9683)" fill="#ff212c">
   <path id="path2982"/>
  </g>
  <g id="g2992" transform="matrix(5.7244485,0,0,5.7244485,-582.68175,-2300.9683)" fill="#ff212c">
   <path id="path2994"/>
  </g>
  <g id="g3004" transform="matrix(5.7244485,0,0,5.7244485,-582.68175,-2300.9683)" fill="#ff212c">
   <path id="path3006"/>
  </g>
  <g id="g3016" transform="matrix(5.7244485,0,0,5.7244485,-582.68175,-2300.9683)" fill="#ff212c">
   <path id="path3018"/>
  </g>
  <g id="g3028" transform="matrix(5.7244485,0,0,5.7244485,-582.68175,-2300.9683)" fill="#ff212c">
   <path id="path3030"/>
  </g>
  <g id="g3040" transform="matrix(5.7244485,0,0,5.7244485,-582.68175,-2300.9683)" fill="#ff212c">
   <path id="path3042"/>
  </g>
  <g id="g3052" transform="matrix(5.7244485,0,0,5.7244485,-582.68175,-2300.9683)" fill="#ff212c">
   <path id="path3054"/>
  </g>
  <g id="g3076" transform="matrix(5.7244485,0,0,5.7244485,-582.68175,-2300.9683)" fill="#2da6ff">
   <path id="path3078"/>
  </g>
  <g id="g3088" transform="matrix(5.7244485,0,0,5.7244485,-582.68175,-2300.9683)" fill="#2da6ff">
   <path id="path3090"/>
  </g>
  <g id="g3100" transform="matrix(5.7244485,0,0,5.7244485,-582.68175,-2300.9683)" fill="#2da6ff">
   <path id="path3102"/>
  </g>
  <g id="g3112" transform="matrix(5.7244485,0,0,5.7244485,-582.68175,-2300.9683)" fill="#2da6ff">
   <path id="path3114"/>
  </g>
  <g id="g3124" transform="matrix(5.7244485,0,0,5.7244485,-582.68175,-2300.9683)" fill="#2da6ff">
   <path id="path3126"/>
  </g>
  <g id="g3136" transform="matrix(5.7244485,0,0,5.7244485,-582.68175,-2300.9683)" fill="#2da6ff">
   <path id="path3138"/>
  </g>
  <g id="g3148" transform="matrix(5.7244485,0,0,5.7244485,-582.68175,-2300.9683)" fill="#2da6ff">
   <path id="path3150"/>
  </g>
  <g id="g3160" transform="matrix(5.7244485,0,0,5.7244485,-582.68175,-2300.9683)" fill="#2da6ff">
   <path id="path3162"/>
  </g>
  <g id="g3184" transform="matrix(5.7244485,0,0,5.7244485,-582.68175,-2300.9683)" fill="#2da6ff">
   <path id="path3186"/>
  </g>
  <g id="g3196" transform="matrix(5.7244485,0,0,5.7244485,-582.68175,-2300.9683)" fill="#2da6ff">
   <path id="path3198"/>
  </g>
  <g id="g3208" transform="matrix(5.7244485,0,0,5.7244485,-582.68175,-2300.9683)" fill="#2da6ff">
   <path id="path3210"/>
  </g>
  <g id="g3220" transform="matrix(5.72445 0 0 5.72445 -582.682 -2300.97)" fill="#2da6ff">
   <path id="path3222" transform="translate(-4.83572, -10.4934)"/>
  </g>
 </g>
</svg>